# xmcd CD database file
#
# Track frame offsets:
#	150
#	41304
#	86471
#	105377
#	126151
#	143997
#	167880
#	218647
#
# Disc length: 3290 seconds
#
# Revision: 0
# Processed by: cddbd v1.5.1PL0 Copyright (c) Steve Scherf et al.
# Submitted via: CDex 1.51
#
DISCID=640cd808
DTITLE=All-State Music Festival - All-State Music Festival 2001 [CD1]
DYEAR=2001
DGENRE=Jazz
TTITLE0=Travis Laplante (Tenor Sax) - A Spiritual by Coltrane
TTITLE1=Critic's Choice - Nelson
TTITLE2=Lady Bird - Dameron
TTITLE3=Starfire - Golson
TTITLE4=Thad Had - La Barbera
TTITLE5=Tanga - Gillespie
TTITLE6=Filthy McNasty - Silver
TTITLE7=Basie's Buddy 'B' - La Barbera
EXTD=YEAR: 2001
EXTT0=
EXTT1=
EXTT2=
EXTT3=
EXTT4=
EXTT5=
EXTT6=
EXTT7=
PLAYORDER=
